# xmcd
# 
# Track frame offsets:
#     150
#     10426
#     21032
#     31554
#     42782
#     54990
#     66212
#     77670
#     89666
#     99947
#     111792
#     123473
#     135752
#     149918
#     161691
#     174144
#     187657
#     198582
#     209123
#     219084
#     231066
#     242580
#     255225
#     265392
#     275590
# 
# Disc length: 3857
# 
# Revision: 0
# Processed by: cddbd v1.5.2PL0 Copyright (c) Steve Scherf et al.
# Submitted via: fre:ac v1.0.31
# 
DISCID=510f0f19
DTITLE=Country Hit Parade - Country Hit Parade 1953
DYEAR=0
DGENRE=Country
TTITLE0=Let Me Be The One
TTITLE1=Its Been So Long
TTITLE2=Seven Lonely Days
TTITLE3=Hey Joe!
TTITLE4=Goin Steady
TTITLE5=Don't Let The Stars Get In Your Eyes
TTITLE6=A Dear John Letter
TTITLE7=Mexican Joe
TTITLE8=Wake Up Irene
TTITLE9=You All Come
TTITLE10=I Let The Stars Get In My Eyes
TTITLE11=Your cheatin heart
TTITLE12=Crying In The Chapel
TTITLE13=Gamblers Guitar
TTITLE14=I Couldnt Keep Fom Crying
TTITLE15=A Lovers Quarrel
TTITLE16=There Stands The Glass
TTITLE17=Trademark
TTITLE18=Honey Baby Hurry
TTITLE19=Paying For That Back Street Affair
TTITLE20=Thats Me Without You
TTITLE21=Bimbo
TTITLE22=Rub A Dub Dub
TTITLE23=Spanish Fireball
TTITLE24=Courtin' In The Rain
EXTD=
EXTT0=
EXTT1=
EXTT2=
EXTT3=
EXTT4=
EXTT5=
EXTT6=
EXTT7=
EXTT8=
EXTT9=
EXTT10=
EXTT11=
EXTT12=
EXTT13=
EXTT14=
EXTT15=
EXTT16=
EXTT17=
EXTT18=
EXTT19=
EXTT20=
EXTT21=
EXTT22=
EXTT23=
EXTT24=
PLAYORDER=
